<?xml version="1.0" encoding="utf-8"?>
<!-- Generator: Adobe Illustrator 16.0.0, SVG Export Plug-In . SVG Version: 6.00 Build 0)  -->
<!DOCTYPE svg PUBLIC "-//W3C//DTD SVG 1.1//EN" "http://www.w3.org/Graphics/SVG/1.1/DTD/svg11.dtd">
<svg version="1.1" id="Layer_1" xmlns="http://www.w3.org/2000/svg" xmlns:xlink="http://www.w3.org/1999/xlink" x="0px" y="0px"
	 width="512px" height="512px" viewBox="0 0 512 512" enable-background="new 0 0 512 512" xml:space="preserve">
<g>
	<path d="M168,288c54.125,0,98-50.156,98-112S222.125,64,168,64s-98,50.156-98,112S113.875,288,168,288z M168,260
		c-15.469,0-28-12.531-28-28h56C196,247.469,183.469,260,168,260z M102.438,166.219c14.313,10.656,42.063,6.75,66.5-10.531
		c12.313-8.672,21.469-19.219,27.125-29.766C220.719,136.734,238,161.313,238,190c0,13.859-4.156,26.688-11.094,37.563L168,204
		l-58.906,23.563C102.156,216.688,98,203.859,98,190C98,181.609,99.75,173.656,102.438,166.219z"/>
	<path d="M280,316h-56l-56,84l-56-84H56c-30.906,0-56,25.063-56,56v56v56c0,15.469,12.563,28,28,28h280c15.469,0,28-12.531,28-28
		v-56v-56C336,341.063,310.938,316,280,316z"/>
	<path d="M316,140v-28c56,0,56-56,56-56s0,56,56,56v28c0,30.922-25.094,56-56,56h84c15.469,0,28-12.531,28-28
		c-15.469,0-28-12.531-28-28V84c0-46.391-37.625-84-84-84c-46.438,0-84,37.609-84,84v56v56h84C341.063,196,316,170.922,316,140z"/>
	<path d="M456,252h-56l28,28l-56,84v84h112c15.469,0,28-12.531,28-28v-56v-56C512,277.063,486.906,252,456,252z"/>
</g>
</svg>
